<?xml version="1.0" standalone="no"?>
<!DOCTYPE svg PUBLIC "-//W3C//DTD SVG 20010904//EN"
 "http://www.w3.org/TR/2001/REC-SVG-20010904/DTD/svg10.dtd">
<svg version="1.0" xmlns="http://www.w3.org/2000/svg"
 width="600.000000pt" height="600.000000pt" viewBox="0 0 600.000000 600.000000"
 preserveAspectRatio="xMidYMid meet">
<metadata>
Created by potrace 1.11, written by Peter Selinger 2001-2013
</metadata>
<g transform="translate(0.000000,600.000000) scale(0.100000,-0.100000)"
fill="#000000" stroke="none">
<path d="M3329 5096 c-2 -2 -22 -6 -44 -9 -121 -14 -290 -83 -398 -161 -147
-106 -268 -270 -316 -431 -7 -22 -14 -45 -16 -52 -2 -6 -28 12 -57 41 -152
149 -354 228 -582 227 -45 0 -91 -3 -102 -5 -12 -2 -37 -7 -55 -10 -112 -18
-244 -74 -351 -146 -94 -65 -128 -98 -237 -236 -21 -27 -90 -185 -106 -244
-30 -109 -23 -315 15 -405 4 -11 19 -42 31 -70 13 -27 25 -54 28 -59 2 -5 -5
-6 -15 -2 -13 5 -9 -3 12 -26 18 -18 48 -59 68 -90 20 -32 39 -58 42 -58 3 0
-2 10 -10 22 -29 40 -17 42 15 2 66 -84 208 -319 197 -328 -1 -2 -34 -13 -73
-26 -113 -37 -330 -123 -470 -187 -223 -103 -226 -104 -219 -128 3 -11 19 -64
36 -118 18 -57 27 -102 22 -107 -5 -4 -26 -17 -47 -29 -117 -65 -647 -405
-640 -411 4 -4 87 -42 183 -85 96 -43 203 -91 237 -107 l61 -29 -45 -132 c-24
-73 -46 -139 -48 -147 -2 -8 -20 -62 -40 -120 -20 -58 -38 -112 -40 -120 -2
-8 -13 -41 -24 -72 -11 -32 -18 -58 -16 -58 2 0 54 29 115 65 61 36 130 76
153 89 23 13 103 59 177 103 75 43 142 83 150 87 8 4 24 12 35 19 11 7 87 50
168 96 81 46 147 89 147 95 0 6 -14 54 -30 106 -16 52 -30 98 -30 101 0 9 188
81 201 77 6 -2 22 -35 35 -73 38 -110 138 -301 212 -405 79 -111 246 -285 350
-364 95 -72 217 -145 317 -191 44 -20 89 -40 100 -45 82 -38 284 -88 430 -106
119 -15 305 -10 455 11 43 7 101 20 225 51 54 13 245 93 313 131 382 209 668
548 805 953 20 58 38 116 41 130 19 88 27 129 31 155 7 45 18 195 19 234 0 32
3 35 64 63 36 16 69 25 73 21 4 -4 23 -60 43 -123 20 -63 39 -121 41 -127 5
-14 82 30 472 264 122 73 237 141 255 151 36 21 221 133 226 137 2 1 -77 43
-175 93 -270 137 -321 165 -317 177 2 5 39 116 83 245 43 129 90 266 105 304
14 38 25 71 23 73 -8 7 -268 -112 -539 -248 -98 -48 -179 -85 -181 -81 -3 4
-17 48 -31 97 -15 50 -32 104 -37 121 l-10 31 -177 -79 c-208 -94 -304 -131
-507 -199 -133 -44 -408 -119 -490 -134 -182 -32 -256 -43 -323 -50 -129 -13
-247 -18 -387 -16 -491 8 -714 5 -811 -13 -10 -2 -46 -7 -79 -11 -49 -5 -170
-27 -279 -50 -72 -16 -164 -39 -178 -47 -13 -6 -23 1 -45 33 -122 177 -230
291 -331 349 -64 37 -64 36 -86 151 -11 59 -13 188 -3 229 2 8 7 33 12 55 11
56 57 166 97 233 41 69 174 207 247 256 150 101 341 160 516 159 213 0 425
-82 559 -215 37 -37 60 -52 37 -24 -9 11 -6 25 15 62 127 230 343 392 597 449
128 28 287 26 412 -6 156 -39 315 -142 423 -273 55 -68 93 -193 96 -321 l1
-50 -85 -27 c-108 -35 -220 -80 -338 -135 -176 -82 -387 -140 -572 -158 -109
-10 -346 -5 -439 10 -104 17 -315 23 -421 12 -117 -12 -241 -58 -283 -105
l-19 -21 46 14 c26 8 51 17 56 20 30 19 323 27 440 12 30 -3 73 -9 95 -11 22
-3 54 -7 70 -10 196 -34 456 -35 595 -2 14 3 36 8 50 10 14 3 56 14 94 25 38
11 65 17 60 12 -20 -18 -280 -100 -369 -116 -199 -36 -253 -40 -490 -40 -205
0 -255 3 -440 23 -38 4 -146 7 -240 6 -200 -1 -328 -24 -440 -78 -59 -29 -153
-96 -134 -96 3 0 38 11 77 24 71 24 89 29 187 43 65 10 362 10 440 0 33 -4 83
-10 110 -13 28 -4 59 -7 70 -9 11 -1 47 -6 80 -10 33 -3 71 -9 85 -12 49 -9
416 -11 475 -3 33 5 78 12 100 15 53 7 72 11 174 36 148 37 249 77 476 189
229 113 332 157 450 195 82 27 94 44 117 166 31 168 6 315 -86 497 -67 131
-111 189 -199 263 -139 117 -303 178 -498 185 -64 2 -118 2 -120 0z m246
-1236 c-3 -5 -12 -10 -18 -10 -7 0 -6 4 3 10 19 12 23 12 15 0z"/>
</g>
</svg>
